<svg width="47" height="38" viewBox="0 0 47 38" fill="none" xmlns="http://www.w3.org/2000/svg">
<path d="M2 14.5287C2 16.5504 2.33878 18.6954 3.00906 20.6047C4.02779 23.5065 11.3551 28.8056 8.55888 29.1601C8.34054 29.1877 6.40488 29.8413 6.49031 29.9097C7.42511 30.6575 8.79167 30.7463 9.69768 31.5674C9.89104 31.7426 8.62929 31.8062 8.44356 31.8557C7.63154 32.0722 8.17295 33.0619 8.41473 33.499C8.89357 34.3646 9.53114 34.9084 10.5193 34.9766C13.0307 35.1498 15.5098 35.2901 18.0296 35.3874C18.0464 35.388 19.8636 35.5128 19.8027 35.6469C19.784 35.688 19.6324 36.0076 19.7594 35.9568C20.3807 35.7083 20.9196 35.0954 21.5253 34.7748C22.0346 34.5051 22.4479 34.197 22.8875 33.8306C23.8085 33.0631 24.1847 31.868 24.7975 30.8466C25.5008 29.6745 26.5642 27.457 28.2355 27.6032C29.8223 27.7421 30.7515 29.3931 31.7384 30.4574C32.5136 31.2934 33.1952 31.6838 34.1415 32.226L34.1746 32.2449C35.8786 33.2212 38.8055 35.3445 40.6758 33.7513C41.5772 32.9834 42.243 31.9201 42.9966 31.0124C43.4714 30.4406 44.0595 29.8742 44.3949 29.2033C44.7404 28.5124 44.5321 27.8833 44.294 27.2284C43.9837 26.3751 43.6453 25.6011 43.6453 24.6698C43.6453 23.8932 43.8919 23.1306 43.9048 22.3561C43.9251 21.1378 42.9561 20.3647 42.2759 19.401C41.7135 18.6044 41.0027 17.44 40.9209 16.4747C40.8124 15.1951 40.0716 14.1689 38.8595 13.6638C38.3033 13.432 36.0525 13.57 36.7693 12.6259C38.4134 10.4605 40.7035 8.22731 41.1371 5.43997C41.3851 3.84529 40.1079 3.22304 38.8162 2.66505C35.7467 1.33902 32.6084 2.40558 29.432 2.40558C24.5899 2.40558 19.78 2.13604 14.9592 2.79479C14.3664 2.8758 12.5512 2.96439 12.3933 3.83268C12.302 4.33515 12.4568 4.91632 12.4798 5.41834C12.5371 6.67031 12.6049 8.29686 11.7879 9.33926C10.82 10.5741 9.23312 11.2009 7.8165 11.7322C6.13454 12.3629 4.39434 12.8227 2.72076 13.4764C2.08945 13.723 2 13.8637 2 14.5287Z" stroke="#F05D23" stroke-width="3" stroke-linecap="round"/>
<path d="M30.542 11.4871C29.1939 13.5972 27.5014 15.4589 26.1526 17.5631C25.2867 18.9138 24.413 20.2108 23.2767 21.3471" stroke="#F05D23" stroke-width="3" stroke-linecap="round"/>
<path d="M23.4065 12.006C25.4439 14.6547 27.5952 17.2207 29.6554 19.8551C30.0541 20.3648 30.4879 20.9208 31.0321 21.2894C31.1849 21.3929 31.2395 21.315 31.3204 21.4768" stroke="#F05D23" stroke-width="3" stroke-linecap="round"/>
</svg>
